# xmcd CD database file
#
# Track frame offsets:
#	150
#	9427
#	22860
#	40307
#	63687
#	75667
#	94605
#	106335
#	133125
#	154082
#	176007
#	197400
#	220830
#	245632
#	282902
#	312182
#
# Disc length: 4438 seconds
#
# Revision: 0
# Processed by: cddbd v1.4PL0 Copyright (c) Steve Scherf et al.
# Submitted via: CDex 1.50beta10
#
DISCID=d4115410
DTITLE=Jack McDuff - Tobacco road (1-9) - Do it now! (10-16)
DYEAR=1967
DGENRE=Jazz
TTITLE0=Teardrops from my eyes
TTITLE1=Tobacco road
TTITLE2=The shadow of your smile
TTITLE3=Can't get satisfied
TTITLE4=Blowin' in the wind
TTITLE5=And the angels sing
TTITLE6=This bitter Earth
TTITLE7=Alexander's ragtime band
TTITLE8=Wade in the water
TTITLE9=Snap back Jack
TTITLE10=Mush melon
TTITLE11=Summer samba
TTITLE12=Do it now
TTITLE13=Strolling blues
TTITLE14=Pleasant moments
TTITLE15=Mutt and Jeff
EXTD=YEAR: 1967
EXTT0=
EXTT1=
EXTT2=
EXTT3=
EXTT4=
EXTT5=
EXTT6=
EXTT7=
EXTT8=
EXTT9=
EXTT10=
EXTT11=
EXTT12=
EXTT13=
EXTT14=
EXTT15=
PLAYORDER=
